<svg xmlns="http://www.w3.org/2000/svg" width="60.55" height="55.504" viewBox="0 0 60.55 55.504">
  <g id="Group_6014" data-name="Group 6014" transform="translate(-415 -2320.413)">
    <g id="Group_6013" data-name="Group 6013">
      <g id="icon">
        <path id="icon-2" data-name="icon" d="M2612.938,2241.091a6.944,6.944,0,0,1-6.938-6.938v-41.628a6.944,6.944,0,0,1,6.938-6.938h46.674a6.943,6.943,0,0,1,6.938,6.938v41.628a6.944,6.944,0,0,1-6.938,6.938Zm-3.154-6.938a3.158,3.158,0,0,0,3.154,3.154h46.674a3.158,3.158,0,0,0,3.154-3.154V2198.2h-52.981Zm52.981-39.736v-1.892a3.157,3.157,0,0,0-3.154-3.154h-46.674a3.158,3.158,0,0,0-3.154,3.154v1.892Zm-24.6,34.06a1.892,1.892,0,1,1,0-3.784h11.353a1.892,1.892,0,1,1,0,3.784Zm-16.476-.555a1.893,1.893,0,0,1,0-2.677l6.861-6.86-6.863-6.862a1.893,1.893,0,0,1,2.677-2.677l8.2,8.2a1.892,1.892,0,0,1,0,2.677l-8.2,8.2a1.888,1.888,0,0,1-2.675,0Z" transform="translate(-2191 134.826)" fill="#717171"/>
      </g>
    </g>
  </g>
</svg>
