<svg xmlns="http://www.w3.org/2000/svg" width="83.995" height="80.066" viewBox="0 0 83.995 80.066">
  <g id="Group_6013" data-name="Group 6013" transform="translate(-415 -2562.469)">
    <g id="icon">
      <path id="Path_8735" data-name="Path 8735" d="M82.683,1.5h-5.25a1.311,1.311,0,0,0-1.312,1.312v5.25a1.311,1.311,0,0,0,1.312,1.312h1.281A36.84,36.84,0,0,1,45.636,44.618a3.932,3.932,0,0,0-7.274,0A36.837,36.837,0,0,1,5.281,9.372H6.563A1.311,1.311,0,0,0,7.876,8.059V2.809A1.311,1.311,0,0,0,6.563,1.5H1.313A1.311,1.311,0,0,0,0,2.809v5.25A1.311,1.311,0,0,0,1.313,9.372H2.656A39.52,39.52,0,0,0,27.878,44.806H19.443a3.937,3.937,0,1,0,0,2.625H38.3a3.912,3.912,0,0,0,7.389,0H64.549a3.937,3.937,0,1,0,0-2.625h-8.44A39.527,39.527,0,0,0,81.337,9.372h1.347A1.311,1.311,0,0,0,84,8.059V2.809A1.311,1.311,0,0,0,82.683,1.5ZM2.626,4.122H5.251V6.747H2.626ZM15.749,47.431a1.312,1.312,0,1,1,1.312-1.312A1.313,1.313,0,0,1,15.749,47.431Zm26.249,0a1.312,1.312,0,0,1-1.311-1.306s0,0,0,0,0-.007,0-.009a1.309,1.309,0,0,1,2.618-.02c0,.01-.005.018,0,.028a.1.1,0,0,0,.005.018A1.311,1.311,0,0,1,42,47.431Zm26.249-2.625a1.312,1.312,0,1,1-1.312,1.312A1.313,1.313,0,0,1,68.246,44.806ZM81.371,6.747H78.746V4.122h2.625Z" transform="translate(414.999 2560.972)" fill="#f16000"/>
      <path id="Path_8736" data-name="Path 8736" d="M43.352,53.851a1.285,1.285,0,0,0-.046-.241,1.237,1.237,0,0,0-.088-.248c-.016-.031-.016-.068-.034-.1l-7.876-13.13c-.01-.017-.028-.026-.038-.042a1.281,1.281,0,0,0-.1-.123,1.262,1.262,0,0,0-.144-.146,1.3,1.3,0,0,0-.125-.1c-.017-.012-.026-.028-.042-.038s-.056-.016-.083-.029a1.363,1.363,0,0,0-.18-.075,1.034,1.034,0,0,0-.165-.047,1.091,1.091,0,0,0-.159-.018c-.03,0-.058-.018-.088-.018s-.058.016-.088.018a1.13,1.13,0,0,0-.16.018,1.058,1.058,0,0,0-.164.047,1.267,1.267,0,0,0-.18.075c-.028.014-.056.014-.083.029s-.026.028-.042.038a1.281,1.281,0,0,0-.123.1,1.175,1.175,0,0,0-.146.146,1.281,1.281,0,0,0-.1.123c-.01.017-.028.026-.038.042l-7.876,13.13a.672.672,0,0,0-.034.1,1.668,1.668,0,0,0-.134.49,1.135,1.135,0,0,0,.013.24,1.286,1.286,0,0,0,.055.265c.012.033.007.067.021.1l3.226,7.528a1.3,1.3,0,0,0-.713,1.146v5.25a1.311,1.311,0,0,0,1.312,1.312h10.5a1.311,1.311,0,0,0,1.312-1.312v-5.25a1.3,1.3,0,0,0-.706-1.146l3.226-7.528c.014-.031.009-.066.021-.1a1.286,1.286,0,0,0,.055-.265A1.233,1.233,0,0,0,43.352,53.851ZM31.11,61.816l-3.334-7.779,5.094-8.49v9.7a1.312,1.312,0,0,0,2.625,0v-9.7l5.094,8.49-3.334,7.779Zm7.01,5.25H30.245V64.441H38.12Z" transform="translate(422.814 2572.845)" fill="#f16000"/>
    </g>
  </g>
</svg>
