<svg xmlns="http://www.w3.org/2000/svg" width="55.67" height="55.67" viewBox="0 0 55.67 55.67">
  <g id="Group_6015" data-name="Group 6015" transform="translate(-815 -2320.33)">
    <g id="icon" transform="translate(815 2320.33)">
      <path id="create" d="M47.518,8.153A27.835,27.835,0,0,0,8.153,47.518a1.628,1.628,0,0,0,1.433.452h0l13.178-2.308a1.631,1.631,0,0,0,.872-.453L44.831,24.016a1.631,1.631,0,0,0,0-2.307L33.96,10.838a1.631,1.631,0,0,0-2.307,0L10.459,32.032a1.631,1.631,0,0,0-.453.872L8.286,42.729a24.575,24.575,0,1,1,19.549,9.68,1.631,1.631,0,1,0,0,3.262A27.835,27.835,0,0,0,47.518,8.153Zm-34.84,28.4,6.434,6.434-7.8,1.366Zm9.806,5.193-3.129-3.129L38.243,19.734l3.129,3.129ZM32.806,14.3l3.13,3.13L17.049,36.315l-3.13-3.13Z" fill="#717171"/>
    </g>
  </g>
</svg>
