<svg xmlns="http://www.w3.org/2000/svg" width="56.519" height="56.515" viewBox="0 0 56.519 56.515">
  <g id="Group_6016" data-name="Group 6016" transform="translate(-1215 -2320.001)">
    <g id="icon">
      <path id="icon-2" data-name="icon" d="M1812.515,2242.516A6.517,6.517,0,0,1,1806,2236v-34.681a6.517,6.517,0,0,1,6.514-6.514h24.349a1.3,1.3,0,1,1,0,2.605h-24.349a3.92,3.92,0,0,0-3.909,3.909V2236a3.921,3.921,0,0,0,3.909,3.909H1847.2A3.919,3.919,0,0,0,1851.1,2236v-24.35a1.3,1.3,0,1,1,2.606,0V2236a6.516,6.516,0,0,1-6.513,6.514Zm19.125-25.639a1.283,1.283,0,0,1-.313-1.328l3.323-10.02c0-.012.013-.012.013-.025.014-.04.026-.066.04-.1.013-.012.013-.026.026-.04.025-.039.039-.065.065-.1,0-.013.014-.013.014-.026.026-.039.065-.078.091-.118l.026-.026.051-.052,18.657-18.656a1.339,1.339,0,0,1,.924-.377,1.285,1.285,0,0,1,.925.377l6.657,6.645a1.3,1.3,0,0,1,0,1.837l-18.669,18.67c-.013.026-.04.039-.052.052s-.013.014-.026.026c-.04.025-.078.065-.117.091s-.092.052-.13.078a.049.049,0,0,1-.026.014.467.467,0,0,1-.117.051c-.014.013-.014.013-.026.013l-9.993,3.334a1.517,1.517,0,0,1-.418.066h0A1.312,1.312,0,0,1,1831.64,2216.876Zm2.984-2.983,5.524-1.837-3.687-3.687Zm3.114-7.935,4.82,4.821,16.818-16.819-4.82-4.82Z" transform="translate(-591 134)" fill="#717171"/>
    </g>
  </g>
</svg>
