<svg xmlns="http://www.w3.org/2000/svg" width="80.012" height="80.012" viewBox="0 0 80.012 80.012">
  <g id="Group_6014" data-name="Group 6014" transform="translate(-815 -2562.785)">
    <g id="icon">
      <path id="Path_8737" data-name="Path 8737" d="M63.106-2.094a.615.615,0,0,0,.615-.615V-15.676a.615.615,0,0,0-.615-.615H50.14a.615.615,0,0,0-.615.615v5.868H-2.094v-5.868a.615.615,0,0,0-.615-.615H-15.676a.615.615,0,0,0-.615.615V-2.709a.615.615,0,0,0,.615.615h5.869V49.525h-5.869a.615.615,0,0,0-.615.615V63.106a.615.615,0,0,0,.615.615H-2.709a.615.615,0,0,0,.615-.615V57.239H49.523v5.868a.615.615,0,0,0,.615.615H63.106a.615.615,0,0,0,.615-.615V50.14a.615.615,0,0,0-.615-.615H57.237V-2.094ZM50.755-15.062H62.491V-3.324H50.755Zm-65.816,0H-3.324V-3.324H-15.062Zm0,77.553V50.755H-3.324V62.491H-15.062Zm77.553,0H50.753V50.755H62.491ZM56.007,49.525H50.138a.615.615,0,0,0-.615.615v5.869H-2.094V50.14a.615.615,0,0,0-.615-.615H-8.578V-2.094h5.869a.615.615,0,0,0,.615-.615V-8.578H49.525v5.869a.615.615,0,0,0,.615.615h5.868V49.525Z" transform="translate(831.291 2579.076)" fill="#f16000"/>
      <path id="Path_8738" data-name="Path 8738" d="M48.789,6.083H6.7a.615.615,0,0,0-.615.615V48.789A.615.615,0,0,0,6.7,49.4H48.789a.615.615,0,0,0,.615-.615V6.7A.615.615,0,0,0,48.789,6.083Zm-.615,42.091H7.313V7.313H48.174Z" transform="translate(827.263 2575.047)" fill="#f16000"/>
    </g>
  </g>
</svg>
