<svg xmlns="http://www.w3.org/2000/svg" width="84.281" height="80.305" viewBox="0 0 84.281 80.305">
  <g id="Group_6015" data-name="Group 6015" transform="translate(-1215 -2563.785)">
    <g id="icon">
      <path id="Path_8739" data-name="Path 8739" d="M16.238,34.967H30.549a5.307,5.307,0,0,0,5.3-5.3V15.885a5.307,5.307,0,0,0-5.3-5.3H16.238a5.307,5.307,0,0,0-5.3,5.3V29.666A5.307,5.307,0,0,0,16.238,34.967Zm-3.18-19.082a3.184,3.184,0,0,1,3.18-3.18H30.549a3.184,3.184,0,0,1,3.18,3.18V29.666a3.184,3.184,0,0,1-3.18,3.18H16.238a3.184,3.184,0,0,1-3.18-3.18Z" transform="translate(1204.063 2553.201)" fill="#f16000"/>
      <path id="Path_8740" data-name="Path 8740" d="M30.238,34.967H44.549a5.307,5.307,0,0,0,5.3-5.3V15.885a5.307,5.307,0,0,0-5.3-5.3H30.238a5.307,5.307,0,0,0-5.3,5.3V29.666A5.307,5.307,0,0,0,30.238,34.967Zm-3.18-19.082a3.184,3.184,0,0,1,3.18-3.18H44.549a3.184,3.184,0,0,1,3.18,3.18V29.666a3.184,3.184,0,0,1-3.18,3.18H30.238a3.184,3.184,0,0,1-3.18-3.18Z" transform="translate(1219.747 2553.201)" fill="#f16000"/>
      <path id="Path_8741" data-name="Path 8741" d="M58.549,10.584H44.238a5.307,5.307,0,0,0-5.3,5.3V29.666a5.307,5.307,0,0,0,5.3,5.3H58.549a5.307,5.307,0,0,0,5.3-5.3V15.885A5.308,5.308,0,0,0,58.549,10.584Zm3.18,19.082a3.184,3.184,0,0,1-3.18,3.18H44.238a3.184,3.184,0,0,1-3.18-3.18V15.885a3.184,3.184,0,0,1,3.18-3.18H58.549a3.184,3.184,0,0,1,3.18,3.18Z" transform="translate(1235.43 2553.201)" fill="#f16000"/>
      <path id="Path_8742" data-name="Path 8742" d="M16.238,47.967H30.549a5.307,5.307,0,0,0,5.3-5.3V28.885a5.307,5.307,0,0,0-5.3-5.3H16.238a5.307,5.307,0,0,0-5.3,5.3V42.666A5.307,5.307,0,0,0,16.238,47.967Zm-3.18-19.082a3.184,3.184,0,0,1,3.18-3.18H30.549a3.184,3.184,0,0,1,3.18,3.18V42.666a3.184,3.184,0,0,1-3.18,3.18H16.238a3.184,3.184,0,0,1-3.18-3.18Z" transform="translate(1204.063 2567.764)" fill="#f16000"/>
      <path id="Path_8743" data-name="Path 8743" d="M30.238,47.967H44.549a5.307,5.307,0,0,0,5.3-5.3V28.885a5.307,5.307,0,0,0-5.3-5.3H30.238a5.307,5.307,0,0,0-5.3,5.3V42.666A5.307,5.307,0,0,0,30.238,47.967Zm-3.18-19.082a3.184,3.184,0,0,1,3.18-3.18H44.549a3.184,3.184,0,0,1,3.18,3.18V42.666a3.184,3.184,0,0,1-3.18,3.18H30.238a3.184,3.184,0,0,1-3.18-3.18Z" transform="translate(1219.747 2567.764)" fill="#f16000"/>
      <path id="Path_8744" data-name="Path 8744" d="M58.549,23.584H44.238a5.307,5.307,0,0,0-5.3,5.3v42.14a5.307,5.307,0,0,0,5.3,5.3H58.549a5.307,5.307,0,0,0,5.3-5.3V28.885A5.308,5.308,0,0,0,58.549,23.584Zm3.18,47.441a3.184,3.184,0,0,1-3.18,3.18H44.238a3.184,3.184,0,0,1-3.18-3.18V28.885a3.184,3.184,0,0,1,3.18-3.18H58.549a3.184,3.184,0,0,1,3.18,3.18Z" transform="translate(1235.43 2567.764)" fill="#f16000"/>
      <path id="Path_8745" data-name="Path 8745" d="M16.238,60.967H30.549a5.307,5.307,0,0,0,5.3-5.3V41.885a5.307,5.307,0,0,0-5.3-5.3H16.238a5.307,5.307,0,0,0-5.3,5.3V55.666A5.307,5.307,0,0,0,16.238,60.967Zm-3.18-19.082a3.184,3.184,0,0,1,3.18-3.18H30.549a3.184,3.184,0,0,1,3.18,3.18V55.666a3.184,3.184,0,0,1-3.18,3.18H16.238a3.184,3.184,0,0,1-3.18-3.18Z" transform="translate(1204.063 2582.328)" fill="#f16000"/>
      <path id="Path_8746" data-name="Path 8746" d="M30.238,60.967H44.549a5.307,5.307,0,0,0,5.3-5.3V41.885a5.307,5.307,0,0,0-5.3-5.3H30.238a5.307,5.307,0,0,0-5.3,5.3V55.666A5.307,5.307,0,0,0,30.238,60.967Zm-3.18-19.082a3.184,3.184,0,0,1,3.18-3.18H44.549a3.184,3.184,0,0,1,3.18,3.18V55.666a3.184,3.184,0,0,1-3.18,3.18H30.238a3.184,3.184,0,0,1-3.18-3.18Z" transform="translate(1219.747 2582.328)" fill="#f16000"/>
    </g>
  </g>
</svg>
